<?xml version="1.0" standalone="no"?><!DOCTYPE svg PUBLIC "-//W3C//DTD SVG 1.1//EN" "http://www.w3.org/Graphics/SVG/1.1/DTD/svg11.dtd"><svg t="1596789801145" class="icon" viewBox="0 0 1024 1024" version="1.1" xmlns="http://www.w3.org/2000/svg" p-id="821" xmlns:xlink="http://www.w3.org/1999/xlink" width="200" height="200"><defs><style type="text/css"></style></defs><path d="M1010.346667 414.47619A87.28381 87.28381 0 0 0 926.47619 334.994286h-2.438095a79.238095 79.238095 0 0 1-78.994285-79.238096 89.965714 89.965714 0 0 1 8.289523-29.257142 99.230476 99.230476 0 0 0-34.133333-119.710477l-121.904762-67.535238-4.87619-2.194285a95.817143 95.817143 0 0 0-38.765715-7.801905 103.862857 103.862857 0 0 0-74.605714 30.47619 139.215238 139.215238 0 0 1-65.097143 40.228572 139.946667 139.946667 0 0 1-65.340952-40.96 104.594286 104.594286 0 0 0-113.859048-24.380953L208.944762 104.350476l-4.876191 3.169524A97.52381 97.52381 0 0 0 170.666667 226.255238a97.52381 97.52381 0 0 1 7.314285 29.744762 79.969524 79.969524 0 0 1-82.163809 79.238095h-1.950476A86.79619 86.79619 0 0 0 12.678095 414.47619a598.064762 598.064762 0 0 0-10.483809 98.986667 623.177143 623.177143 0 0 0 10.483809 99.961905 87.04 87.04 0 0 0 81.432381 78.262857h4.876191A79.238095 79.238095 0 0 1 177.980952 770.438095a88.746667 88.746667 0 0 1-7.314285 29.500953 99.230476 99.230476 0 0 0 33.645714 119.222857l118.735238 66.803809 4.876191 2.438096a95.085714 95.085714 0 0 0 38.765714 8.045714 103.619048 103.619048 0 0 0 75.824762-32.182857 144.579048 144.579048 0 0 1 66.31619-42.666667 138.971429 138.971429 0 0 1 66.80381 43.641905 101.912381 101.912381 0 0 0 75.580952 32.914285 95.573333 95.573333 0 0 0 39.009524-8.045714l123.611428-68.022857 4.876191-3.169524a97.52381 97.52381 0 0 0 33.158095-118.735238 97.52381 97.52381 0 0 1-7.070476-29.500952A80.213333 80.213333 0 0 1 926.47619 691.44381a88.746667 88.746667 0 0 0 83.139048-78.994286 633.904762 633.904762 0 0 0 10.24-98.986667 630.247619 630.247619 0 0 0-9.508571-98.986667z m-71.436191 185.782858c-1.706667 9.264762-6.582857 19.504762-12.678095 19.504762a151.405714 151.405714 0 0 0-153.84381 151.893333A163.59619 163.59619 0 0 0 785.066667 828.952381a26.087619 26.087619 0 0 1-7.801905 30.963809L658.285714 924.038095a20.72381 20.72381 0 0 1-7.801904 0 29.257143 29.257143 0 0 1-21.455239-8.533333c-6.582857-7.314286-63.390476-67.779048-121.904761-67.779048S390.095238 914.285714 390.095238 915.017143a32.426667 32.426667 0 0 1-30.963809 7.070476L243.809524 857.965714A26.087619 26.087619 0 0 1 237.470476 828.952381a163.352381 163.352381 0 0 0 13.165714-58.758095 151.893333 151.893333 0 0 0-151.649523-151.893334h-4.876191c-1.706667 0-7.314286-6.095238-9.99619-19.017142A558.32381 558.32381 0 0 1 75.093333 512a560.761905 560.761905 0 0 1 9.020953-86.064762 28.038095 28.038095 0 0 1 9.508571-19.017143h2.194286a152.137143 152.137143 0 0 0 154.819047-152.380952 162.620952 162.620952 0 0 0-12.678095-57.539048 26.331429 26.331429 0 0 1 7.070476-30.47619L365.714286 101.424762a32.670476 32.670476 0 0 1 30.232381 7.314286c2.438095 2.681905 60.952381 63.634286 118.003809 63.634285s114.834286-59.733333 117.272381-62.415238a32.670476 32.670476 0 0 1 22.430476-8.289524 25.84381 25.84381 0 0 1 9.020953 1.462858l115.078095 64.365714a26.575238 26.575238 0 0 1 7.558095 29.257143 163.352381 163.352381 0 0 0-13.165714 58.758095 151.893333 151.893333 0 0 0 151.649524 152.137143c10.24 0 13.653333 13.165714 14.628571 18.773333a553.20381 553.20381 0 0 1 9.264762 85.577143 503.466667 503.466667 0 0 1-9.020952 86.064762z" p-id="822"></path><path d="M512 318.902857A195.047619 195.047619 0 0 0 502.247619 707.047619h9.752381a195.047619 195.047619 0 0 0 0-388.144762zM512 633.904762a121.904762 121.904762 0 1 1 121.904762-121.904762 121.904762 121.904762 0 0 1-121.904762 121.904762z" p-id="823"></path></svg>